<svg width="40" height="40" viewBox="0 0 40 40" fill="none" xmlns="http://www.w3.org/2000/svg">
<path d="M9.17838 11.4026C13.5189 11.3066 17.8865 11.4292 22.2324 11.4346L27.5513 11.4186C28.5297 11.4186 29.5405 11.3652 30.5135 11.4346C30.9676 11.4666 31.4541 11.5572 31.8486 11.7866C32.3459 12.0746 32.7189 12.6666 32.8432 13.2106C33.0324 14.0319 32.9892 25.7439 32.8595 26.8799C32.8162 27.2852 32.6973 27.6106 32.4541 27.9412C32.0216 28.5386 31.427 28.8106 30.7135 28.9279C26.0865 29.0559 21.4162 28.9492 16.7838 28.9439L11.9027 28.9546C11.0757 28.9546 10.2 29.0132 9.37838 28.9386C8.85405 28.8906 8.27568 28.7679 7.84865 28.4479C7.35676 28.0799 7.03784 27.4346 6.96216 26.8372C6.87568 26.1866 6.93514 25.4772 6.94054 24.8159V21.2959V16.2666C6.94054 15.2479 6.87568 14.1706 7.02162 13.1626C7.07568 12.7786 7.22162 12.4639 7.47568 12.1652C7.92973 11.6319 8.5027 11.4719 9.17297 11.3972L9.17838 11.4026Z" fill="#AF9D34"/>
<path d="M9.34054 12.112C14.1189 12.0854 18.8973 12.0854 23.6757 12.1067L28.3676 12.128C29.0649 12.128 29.7946 12.064 30.4865 12.128C30.8432 12.16 31.1946 12.256 31.4973 12.4534C31.8919 12.7094 32 12.9014 32.0865 13.3494C32.2757 14.368 32.2054 15.4454 32.2054 16.4747V20.8427C32.1946 22.704 32.3568 24.9334 32.1568 26.7574C32.1243 27.0774 32.0486 27.3174 31.8486 27.5787C31.5243 28.016 31.1135 28.176 30.5946 28.2614L16.2108 28.2507H11.9568C11.1081 28.2614 10.227 28.3094 9.38378 28.24C8.98919 28.208 8.58919 28.1387 8.27027 27.8827C7.86486 27.5574 7.68649 27.1094 7.65405 26.608C7.59459 25.792 7.65405 24.9387 7.65405 24.1174L7.66486 19.2534V15.616C7.66486 14.9227 7.6054 14.176 7.68649 13.488C7.72973 13.136 7.82703 12.768 8.08108 12.5067C8.42703 12.1494 8.86486 12.1227 9.33513 12.1014L9.34054 12.112Z" fill="white"/>
<path d="M30.5405 14.1653C30.5838 14.1866 30.627 14.2026 30.6649 14.2293C30.8378 14.3413 30.8919 14.4106 30.9405 14.5973C30.4919 15.4133 25.1784 19.0293 24.0703 19.9786C25.0378 20.7999 30.6108 25.1359 30.9514 25.7013C30.9405 25.9093 30.9189 25.9199 30.7892 26.0853C30.6108 26.1013 30.5513 26.1066 30.3838 26.0106C29.7243 25.6319 29.0865 24.9813 28.4919 24.4959C26.8 23.1306 25.1351 21.712 23.4054 20.3946C22.5135 21.0293 21.5892 21.7546 20.4703 21.9199C18.8703 22.1546 17.7676 21.2426 16.5568 20.3946C15.8432 20.8426 15.1784 21.4559 14.5297 21.9893C13.0162 23.2319 11.5405 24.528 9.99459 25.728C9.87567 25.824 9.72432 25.9039 9.58919 25.9839C9.36757 25.9306 9.37297 25.9199 9.23243 25.7386C9.25405 25.5306 9.31351 25.424 9.46486 25.2693C10.0811 24.6293 10.9027 24.0693 11.5946 23.5039C13.0324 22.3413 14.4541 21.1573 15.8541 19.9466C14.8919 19.1893 9.63784 15.3066 9.28649 14.72C9.2054 14.5813 9.23243 14.592 9.26486 14.448C9.51892 14.3413 9.76757 14.3893 10.0108 14.5066C10.4649 14.72 10.8919 15.2053 11.3027 15.5146C12.8216 16.6613 18.0054 21.0506 19.5351 21.28C20.0757 21.36 20.6865 21.184 21.1676 20.9546C22.2054 20.464 23.1568 19.68 24.0811 19.0026C25.5459 17.936 27.0054 16.864 28.4541 15.776C29.1297 15.264 29.7622 14.6986 30.4541 14.2133L30.5243 14.1653H30.5405Z" fill="#AF9D34"/>
</svg>
