<svg width="40" height="40" viewBox="0 0 40 40" fill="none" xmlns="http://www.w3.org/2000/svg">
<path d="M25.9351 14.6134C25.5784 12.9014 24.3784 11.2107 22.8865 10.272C22.8054 10.224 22.7243 10.176 22.6432 10.128C22.5622 10.08 22.4811 10.0374 22.3946 9.99471C22.3081 9.95205 22.227 9.90938 22.1405 9.87205C22.0541 9.83471 21.9676 9.79205 21.8811 9.76005C21.7946 9.72271 21.7081 9.69071 21.6162 9.65871C21.5297 9.62671 21.4378 9.59471 21.3459 9.56805C21.2541 9.54138 21.1676 9.51471 21.0757 9.48805C20.9838 9.46138 20.8919 9.44005 20.8 9.41871C20.7081 9.39738 20.6162 9.38138 20.5243 9.36005C20.4324 9.34405 20.3405 9.32805 20.2432 9.31205C20.1514 9.30138 20.0541 9.28538 19.9622 9.28005C19.8703 9.26938 19.773 9.26405 19.6811 9.25871C19.5892 9.25871 19.4919 9.24805 19.4 9.24805C19.3081 9.24805 19.2108 9.24805 19.1189 9.24805C19.027 9.24805 18.9297 9.25338 18.8378 9.26405C18.7459 9.26938 18.6487 9.28005 18.5568 9.29071C16.573 9.63205 14.9027 10.5174 13.7189 12.16C12.5838 13.7334 12.227 15.568 12.5676 17.4614C13.3405 21.7547 16.8487 26 19.2703 29.5467L19.3892 29.6054L19.6324 29.3334C21.6541 26.3094 24.9892 21.0774 25.8541 17.5787C26.0919 16.608 26.1514 15.6 25.9514 14.6187L25.9351 14.6134ZM23.1081 19.3707C22.1946 20.4854 21.0378 20.8374 19.6541 20.9814C18.3892 21.0134 17.227 20.8214 16.1784 20.0747C16.1135 20.032 16.0541 19.984 15.9892 19.936C15.9297 19.888 15.8703 19.84 15.8108 19.7867C15.7514 19.7334 15.6973 19.6854 15.6378 19.632C15.5838 19.5787 15.5297 19.5254 15.4757 19.4667C15.4216 19.408 15.373 19.3547 15.3189 19.296C15.2703 19.2374 15.2216 19.1787 15.173 19.1147C15.1243 19.0507 15.0811 18.992 15.0378 18.928C14.9946 18.864 14.9514 18.8 14.9135 18.736C14.8703 18.672 14.8324 18.6027 14.7946 18.5334C14.7568 18.464 14.7243 18.3947 14.6865 18.3254C14.6541 18.256 14.6216 18.1867 14.5892 18.1174C14.5568 18.048 14.5297 17.9734 14.5027 17.904C14.4757 17.8294 14.4541 17.76 14.427 17.6854C14.4 17.6107 14.3838 17.536 14.3622 17.4614C14.3405 17.3867 14.3243 17.312 14.3081 17.2374C14.2919 17.1627 14.2811 17.088 14.2703 17.008C14.0757 15.6 14.5189 14.0854 15.4162 12.976C16.3784 11.7974 17.6703 11.264 19.1568 11.0987C20.2432 11.0614 21.3892 11.4507 22.2486 12.096C22.3135 12.144 22.3784 12.1974 22.4432 12.2507C22.5081 12.304 22.5676 12.3574 22.6324 12.416C22.6919 12.4747 22.7514 12.528 22.8108 12.5867C22.8703 12.6454 22.9243 12.704 22.9784 12.768C23.0324 12.832 23.0865 12.8907 23.1405 12.96C23.1946 13.024 23.2432 13.088 23.2919 13.1574C23.3405 13.2267 23.3892 13.2907 23.4324 13.36C23.4757 13.4294 23.5189 13.4987 23.5622 13.5734C23.6054 13.6427 23.6432 13.7174 23.6811 13.792C23.7189 13.8667 23.7568 13.9414 23.7892 14.016C23.8216 14.0907 23.8541 14.1654 23.8865 14.2454C23.9189 14.32 23.9459 14.4 23.973 14.48C24 14.56 24.0216 14.6347 24.0432 14.7147C24.0649 14.7947 24.0865 14.8747 24.1027 14.9547C24.1189 15.0347 24.1351 15.1147 24.1514 15.1947C24.1676 15.2747 24.1784 15.36 24.1892 15.44C24.3622 16.832 24 18.2827 23.1027 19.376L23.1081 19.3707Z" fill="white"/>
</svg>
