<svg width="34" height="56" viewBox="0 0 34 56" fill="none" xmlns="http://www.w3.org/2000/svg">
<path d="M32.49 1.47331C32.9687 1.9373 33.3484 2.48843 33.6075 3.09514C33.8666 3.70186 34 4.35226 34 5.00911C34 5.66596 33.8666 6.31636 33.6075 6.92308C33.3484 7.52979 32.9687 8.08092 32.49 8.54491L12.4562 28.0043L32.49 47.4638C33.4554 48.4016 33.9978 49.6734 33.9978 50.9996C33.9978 52.3257 33.4554 53.5976 32.49 54.5354C31.5246 55.4732 30.2152 56 28.8499 56C27.4845 56 26.1751 55.4732 25.2097 54.5354L1.50992 31.5151C1.03124 31.051 0.651535 30.5 0.392414 29.8932C0.133294 29.2866 9.01331e-07 28.6361 9.01331e-07 27.9793C9.01331e-07 27.3224 0.133294 26.672 0.392414 26.0653C0.651535 25.4586 1.03124 24.9075 1.50992 24.4435L25.2097 1.42316C27.1718 -0.482664 30.4763 -0.482662 32.49 1.47331Z" fill="black"/>
</svg>
