<svg width="40" height="40" viewBox="0 0 40 40" fill="none" xmlns="http://www.w3.org/2000/svg">
<g clip-path="url(#clip0_18_212)">
<path d="M20.0541 38.7788C9.45946 38.7788 0.864865 30.2988 0.864865 19.8454C0.864865 9.38678 9.45946 0.912109 20.0541 0.912109C30.6541 0.912109 39.2432 9.38678 39.2432 19.8454C39.2432 30.3041 30.6541 38.7788 20.0541 38.7788Z" stroke="white" stroke-miterlimit="10"/>
<path d="M20.0541 11.3334C22.8649 11.3334 23.1946 11.3441 24.3081 11.3921C25.3351 11.4401 25.8919 11.6054 26.2595 11.7494C26.7514 11.9361 27.1027 12.1601 27.4703 12.5281C27.8378 12.8908 28.0649 13.2374 28.2595 13.7228C28.4054 14.0908 28.573 14.6401 28.6216 15.6481C28.6703 16.7414 28.6811 17.0721 28.6811 19.8454C28.6811 22.6188 28.6703 22.9441 28.6216 24.0428C28.573 25.0561 28.4054 25.6054 28.2595 25.9681C28.0703 26.4534 27.8432 26.8001 27.4703 27.1628C27.1027 27.5254 26.7514 27.7494 26.2595 27.9414C25.8865 28.0854 25.3297 28.2508 24.3081 28.2988C23.2 28.3468 22.8649 28.3574 20.0541 28.3574C17.2432 28.3574 16.9135 28.3468 15.8 28.2988C14.773 28.2508 14.2162 28.0854 13.8486 27.9414C13.3568 27.7548 13.0054 27.5254 12.6378 27.1628C12.2703 26.8001 12.0432 26.4534 11.8486 25.9681C11.7027 25.6001 11.5351 25.0508 11.4865 24.0428C11.4378 22.9494 11.427 22.6188 11.427 19.8454C11.427 17.0721 11.4378 16.7468 11.4865 15.6481C11.5351 14.6348 11.7027 14.0854 11.8486 13.7228C12.0378 13.2374 12.2649 12.8908 12.6378 12.5281C13.0054 12.1654 13.3568 11.9414 13.8486 11.7494C14.2216 11.6054 14.7784 11.4401 15.8 11.3921C16.9081 11.3441 17.2432 11.3334 20.0541 11.3334ZM20.0541 9.46143C17.1946 9.46143 16.8378 9.47209 15.7135 9.52543C14.5946 9.57343 13.827 9.74943 13.1622 10.0054C12.4703 10.2721 11.8811 10.6241 11.2973 11.2054C10.7135 11.7814 10.3514 12.3628 10.0865 13.0454C9.82703 13.7068 9.64865 14.4588 9.6 15.5628C9.55135 16.6721 9.53514 17.0241 9.53514 19.8454C9.53514 22.6668 9.54595 23.0188 9.6 24.1281C9.64865 25.2321 9.82703 25.9894 10.0865 26.6454C10.3568 27.3281 10.7135 27.9094 11.2973 28.4854C11.8811 29.0614 12.4703 29.4188 13.1622 29.6854C13.8324 29.9414 14.5946 30.1174 15.7135 30.1654C16.8378 30.2134 17.1946 30.2294 20.0541 30.2294C22.9135 30.2294 23.2703 30.2188 24.3946 30.1654C25.5135 30.1174 26.2811 29.9414 26.9459 29.6854C27.6378 29.4188 28.227 29.0668 28.8108 28.4854C29.3946 27.9041 29.7568 27.3281 30.027 26.6454C30.2865 25.9841 30.4649 25.2321 30.5135 24.1281C30.5622 23.0188 30.5784 22.6668 30.5784 19.8454C30.5784 17.0241 30.5676 16.6721 30.5135 15.5628C30.4649 14.4588 30.2865 13.7014 30.027 13.0454C29.7568 12.3628 29.4 11.7814 28.8108 11.2054C28.2216 10.6294 27.6378 10.2721 26.9459 10.0054C26.2757 9.74943 25.5135 9.57343 24.3946 9.52543C23.2703 9.47743 22.9135 9.46143 20.0541 9.46143Z" fill="white"/>
<path d="M20.0541 14.5122C17.0703 14.5122 14.6486 16.8962 14.6486 19.8455C14.6486 22.7949 17.0703 25.1789 20.0541 25.1789C23.0378 25.1789 25.4595 22.7895 25.4595 19.8455C25.4595 16.9015 23.0432 14.5122 20.0541 14.5122ZM20.0541 23.3015C18.1189 23.3015 16.5459 21.7495 16.5459 19.8402C16.5459 17.9309 18.1135 16.3789 20.0541 16.3789C21.9946 16.3789 23.5622 17.9255 23.5622 19.8402C23.5622 21.7549 21.9946 23.3015 20.0541 23.3015Z" fill="white"/>
<path d="M26.9351 14.3042C26.9351 14.9922 26.3676 15.5522 25.6703 15.5522C24.973 15.5522 24.4054 14.9922 24.4054 14.3042C24.4054 13.6162 24.973 13.0562 25.6703 13.0562C26.3676 13.0562 26.9351 13.6162 26.9351 14.3042Z" fill="white"/>
</g>
<defs>
<clipPath id="clip0_18_212">
<rect width="40" height="40" fill="white"/>
</clipPath>
</defs>
</svg>
