<svg width="40" height="42" viewBox="0 0 40 42" fill="none" xmlns="http://www.w3.org/2000/svg">
<path d="M13.5135 9.85031C13.9946 9.87831 14.2973 9.93991 14.6649 10.2759C15.2054 10.7687 15.7081 11.3511 16.2216 11.8719C16.9189 12.5887 17.7514 13.3111 18.3297 14.1287C18.4919 14.3527 18.6324 14.5879 18.6378 14.8791C18.6541 15.7863 17.1405 16.9175 16.5784 17.5503C16.3622 17.7967 16.1297 18.1159 16.1676 18.4631C16.2 18.7655 16.4595 19.1015 16.6324 19.3255C17.4108 20.3279 18.4108 21.2295 19.2865 22.1423C20.1892 23.0831 21.0973 24.1639 22.0865 25.0039C22.3189 25.1999 22.5568 25.3679 22.8649 25.3399C23.9027 25.2391 25.2162 22.4391 26.3297 22.3999C26.7351 22.3887 27.0541 22.6743 27.3405 22.9431C28.1784 23.7215 30.6432 26.2471 31.2324 27.1095C31.3568 27.2943 31.4378 27.4959 31.4432 27.7199C31.4541 28.2687 31.0324 28.6775 30.6973 29.0415C29.9568 29.7807 29.2 30.5535 28.2703 31.0407C26.8757 31.7743 25.1622 31.7631 23.6973 31.2591C19.573 29.8479 12.7784 23.4975 10.8108 19.4599C9.98919 17.7743 9.48649 15.7247 10.0811 13.8711C10.4757 12.6447 12.4432 10.3879 13.5081 9.83911L13.5135 9.85031Z" fill="#AF9D34"/>
<path d="M13.6054 10.4607C13.6973 10.4775 13.7784 10.4887 13.8649 10.5223C14.4432 10.7575 17.7405 14.1847 18.0486 14.8791C17.573 16.0999 16.0324 16.6823 15.5892 17.9255C15.4432 18.3231 15.5027 18.7095 15.6919 19.0791C16.0595 19.7903 20.7027 24.6007 21.5513 25.3735C21.8 25.6031 22.1135 25.8943 22.4432 25.9783C23.9459 26.3703 25.027 23.8055 26.173 23.1839C26.3351 23.0943 26.4378 23.0943 26.6054 23.1727C27 23.3575 30.0378 26.5663 30.4541 27.0927C30.6216 27.2999 30.7568 27.4959 30.8216 27.7591C30.8054 27.9999 30.6595 28.1399 30.5243 28.3191C29.1459 29.7303 27.9189 31.0239 25.8541 31.0071C22.1189 30.9791 17.3784 26.5159 14.8541 23.8727C12.7351 21.6551 10.3946 18.8215 10.427 15.5175C10.4486 13.1879 12.1459 11.9503 13.6108 10.4663L13.6054 10.4607Z" fill="white"/>
</svg>

