<svg width="34" height="56" viewBox="0 0 34 56" fill="none" xmlns="http://www.w3.org/2000/svg">
<path d="M1.50998 1.47331C1.03133 1.9373 0.651579 2.48843 0.392474 3.09514C0.13337 3.70186 0 4.35226 0 5.00911C0 5.66596 0.13337 6.31636 0.392474 6.92308C0.651579 7.52979 1.03133 8.08092 1.50998 8.54491L21.5438 28.0043L1.50998 47.4638C0.544559 48.4016 0.00218608 49.6734 0.00218608 50.9996C0.00218608 52.3257 0.544559 53.5976 1.50998 54.5354C2.47542 55.4732 3.78483 56 5.15014 56C6.51547 56 7.82486 55.4732 8.7903 54.5354L32.4901 31.5151C32.9688 31.051 33.3485 30.5 33.6076 29.8932C33.8667 29.2866 34 28.6361 34 27.9793C34 27.3224 33.8667 26.672 33.6076 26.0653C33.3485 25.4586 32.9688 24.9075 32.4901 24.4435L8.7903 1.42316C6.82823 -0.482664 3.52369 -0.482662 1.50998 1.47331Z" fill="black"/>
</svg>

